<?xml version="1.0" encoding="utf-8"?>
<!-- Generator: Adobe Illustrator 19.0.0, SVG Export Plug-In . SVG Version: 6.00 Build 0)  -->
<svg version="1.1" id="Layer_1" xmlns="http://www.w3.org/2000/svg" xmlns:xlink="http://www.w3.org/1999/xlink" x="0px" y="0px"
	 width="191.1px" height="27.2px" viewBox="0 0 191.1 27.2" enable-background="new 0 0 191.1 27.2" xml:space="preserve">
<g>
	<path fill="#FFFFFF" d="M2.1,20.9l0-0.3l2.4-2.4h0.3c0.5,0.6,0.8,1,1.2,1.3c0.3,0.2,0.7,0.3,1.2,0.3c1.1,0,1.6-0.9,1.6-2.8
		c0-4.2-0.3-7.2-1-9.1C7.2,6,6.2,5.1,4.7,5.1c-0.8,0-1.4,0.2-1.9,0.6c-0.5,0.4-0.7,1-0.7,1.7c0,0.6,0.3,1.1,1,1.5
		c0.6,0.4,1.3,0.7,1.9,1.1c0.7,0.5,1,1.2,1,2c0,2-0.5,3.1-1.4,3.1c-0.3-0.6-0.7-1.1-1.1-1.6c-1.5-0.8-2.3-1.3-2.6-1.5
		C0.4,11.5,0,10.7,0,9.6C0,8.1,0.6,6.5,1.7,5C2,4.6,3.1,3.4,5.2,1.2h0.5c0.2,0,0.4,0,0.5,0c0.8,0,1.4,0.1,1.9,0.4
		C8.6,1.9,9.6,2.7,10.9,4h0.3c1-2,2.3-3.1,4.1-3.1c0.6,0,1,0,1.2,0.1c0.3,0.1,0.6,0.3,1,0.5L19,3.2c0.9,1,1.5,1.5,1.9,1.7
		C21.3,4.9,21.5,5,21.6,5c0.2,0.1,0.3,0.3,0.3,0.5c0,0.4-0.4,1.2-1.3,2.3c-0.1,0.1-0.5,0.4-1.2,0.7c-0.7,0.3-1.1,0.6-1.2,0.8
		c0,0.3,0,1.2-0.1,2.6c0,1.4-0.1,2.3-0.1,2.6c0,1.3,0.2,2.4,0.5,3.2c0.3,0.8,0.8,1.2,1.4,1.2h0.8c0.3,0.1,0.4,0.2,0.4,0.5
		c-1.7,2.3-2.8,3.4-3.5,3.4c-0.8,0-1.5-0.5-2.3-1.4c-0.8-1.1-1.2-2.3-1.2-3.6c0-0.2,0-0.5,0-0.9c0-0.4,0-0.7,0-1v-2.7
		c0-1,0.2-1.9,0.7-2.7c0.1-0.1,0.5-0.6,1.1-1.4C16.7,8.8,17,8.4,17,8.2c0-0.8-0.4-1.8-1.1-2.9c-0.8-1.2-1.5-1.7-2.2-1.7
		c-1,0-1.5,0.3-1.5,1v11.5c0,1.4-0.6,2.6-1.9,3.6c-1.7,1.2-3.4,2.5-5.1,3.7c-0.1,0-0.1,0-0.2,0c-0.1,0-0.5-0.3-1.4-0.9
		c-0.8-0.6-1.3-1-1.4-1.1C2.1,21.3,2.1,21.1,2.1,20.9z"/>
	<path fill="#FFFFFF" d="M30,5.7C30,5.7,30,5.7,30,5.7c1.6,0.6,2.7,1.6,3.4,2.8c0.7,1.3,1,3,1,5.2c0,1.7-0.4,3-1.1,4.1
		c-0.4,0.6-1.6,1.8-3.6,3.6c-0.5,0.8-0.9,1.2-1.3,1.2c-0.4,0-2-0.8-4.8-2.4v-8.5c0-0.7,0.2-1.2,0.7-1.6c0.9-0.7,2.2-1.7,3.8-3.1
		C29.2,6.2,29.8,5.7,30,5.7z M28,9.2c-0.4,0-0.6,0.1-0.6,0.3v8.2c0,0.2,0.8,0.6,2.3,1.2h0.1c0,0,0.1,0,0.1,0l0.1-0.1
		c0.2-0.1,0.3-0.2,0.3-0.3c0-0.1,0-0.3,0-0.6v-2.6c0-1.9-0.1-3.2-0.4-3.9c-0.2-0.6-0.8-1.4-1.7-2.2L28,9.2z"/>
	<path fill="#FFFFFF" d="M37.8,20.1c0-0.3,0.1-1.3,0.3-2.8c0.2-1.5,0.3-2.4,0.3-2.8v-2.2c0-1.1-0.2-1.8-0.5-2
		c-0.2-0.1-0.4-0.1-0.7-0.2c-0.5-0.2-0.7-0.4-0.7-0.7c0-0.2,0-0.4,0.1-0.4l2.6-2.6h1.2l2.2,2.2l2.2-2.2c0.1,0,0.2,0,0.3,0
		c0.5,0,1,0.3,1.5,0.9c0.6,0.6,0.8,1.1,0.8,1.6c0,0.9-0.3,1.7-0.9,2.4c-0.6,0.8-1.3,1.2-2,1.2c-0.2-1.6-0.5-2.4-1-2.4
		c-0.5,0-0.7,0.7-0.7,2v2.1c0,2.5,0.1,3.9,0.3,4.1l0.6,0.6H46c0,0.3-0.5,1.1-1.4,2.2c-1,1.1-1.6,1.7-1.9,1.7c-0.3,0-1.2-0.4-2.7-1.1
		C38.5,20.9,37.8,20.3,37.8,20.1z"/>
	<path fill="#FFFFFF" d="M49.8,20.1c0-0.1,0-0.4,0.1-0.7c0.1-0.4,0.1-0.6,0.1-0.7v-8.5c0-0.1,0.3-0.5,1-1c0.7-0.5,1-0.9,1-1.1
		c0-0.2-0.4-0.7-1.3-1.7c-0.9-0.9-1.3-1.6-1.3-2c0-0.6,0.1-1,0.3-1.3c0.2-0.3,0.7-0.8,1.5-1.5h0.2c0.1,0,0.1,0,0.2,0
		c0.3,0,0.6,0.2,0.9,0.5c0.4,0.5,0.9,1,1.3,1.6c0.3,0.3,1.5,1.2,3.7,2.7c1.4,0.9,2.2,1.9,2.7,2.9c0.4,1,0.7,2.5,0.7,4.5
		c0,2.4-0.5,4.1-1.6,5.1l-4,3.8h-0.6c-1-0.5-2-1-2.9-1.5L50.7,21c-0.6-0.1-0.9-0.3-0.9-0.6V20.1z M54.2,9.4v8.4
		c0,0.2,0.8,0.6,2.3,1.2h0.1c0,0,0.1,0,0.1,0c0.3-0.1,0.4-0.3,0.5-0.9v-1.8C57.1,11.7,56.1,9.4,54.2,9.4z"/>
	<path fill="#FFFFFF" d="M63.3,11.6c-0.6-0.5-1-0.9-1.2-1.3c0-0.5,1-1.6,2.9-3.1h0.3c0.8,0.8,1.7,1.7,2.9,2.8c0,0.1-0.2,0.4-0.5,0.9
		c-0.3,0.6-0.5,1.3-0.5,2.1c0,1.8,0.1,4,0.3,6.4c0,0.3,0.5,0.4,1.5,0.4c0,0.5-0.2,0.9-0.5,1.3c-0.3,0.4-1.1,1.1-2.2,2
		c0,0-0.1,0-0.1,0h-0.2c-0.7,0-1.4-0.4-2-1.3c-0.6-0.8-0.9-1.7-0.9-2.6V11.6z M63.9,4.3c0-0.1,0-0.2,0-0.2l1.7-1.7
		c0.1-0.1,0.2-0.1,0.4-0.1c0.4,0,0.7,0.2,1,0.5c0.2,0.3,0.4,0.8,0.4,1.3c0,0.6-0.3,1.2-0.8,1.8c-0.5,0.6-1.1,0.9-1.7,0.9
		c-0.2,0-0.4-0.3-0.6-1C64,5,63.9,4.6,63.9,4.3z"/>
	<path fill="#FFFFFF" d="M78.4,9.3c0,0.5-0.1,0.8-0.3,1c-0.2,0.2-0.6,0.4-1.4,0.8l0,0c-0.1,0.1-0.2,0.1-0.4,0.1
		c-0.3,0-0.5-0.1-0.5-0.4c-0.1-0.4-0.1-0.6-0.2-0.7l0-0.1c-0.1-0.1-0.2-0.2-0.4-0.3c-0.4,0-0.6,0.2-0.6,0.7c0,1.5,0.1,3.6,0.3,6.4
		c0.1,1.8,0.6,2.7,1.4,2.7c0.1,0,0.2,0,0.3-0.1l0.6-0.2c0.2,0,0.5-0.1,0.9-0.2c0.3,0.1,0.4,0.8,0.4,2c0,0.5-0.2,1-0.7,1.3
		c-0.3,0.3-0.6,0.4-0.9,0.4c-1.4,0-2.6-0.1-3.7-0.3c-1-0.9-1.7-1.5-2-2.1c-0.4-0.5-0.5-1.1-0.5-1.6v-1.7c0-0.1,0-0.4-0.1-1.1
		c0-0.7-0.1-1-0.1-1.1c0-0.4,0-0.8,0-1.4c0-0.5,0-0.9,0-1.1c0-1,0.2-1.7,0.5-2.2c0.3-0.5,1.1-1.3,2.3-2.4L75,6.6
		c0.2,0,0.4-0.1,0.5-0.2c0.2-0.1,0.3-0.2,0.3-0.2c0.5,0,1.1,0.3,1.7,1C78.1,7.9,78.4,8.6,78.4,9.3z"/>
	<path fill="#FFFFFF" d="M95.1,20c-0.2,0-0.6,0.2-1.3,0.5c-0.7,0.3-1.1,0.5-1.3,0.5l-0.3-0.3v-0.2c0-0.8,0.6-1.7,1.9-2.5
		c1.2-0.8,2.4-1.2,3.4-1.2c0.2,0,0.9,0,1.9,0.1c1.1,0.1,1.7,0.1,1.9,0.1c0-0.1,0-0.5,0.1-1c0-0.5,0.1-0.8,0.1-1
		c0-0.3-0.4-1.2-1.1-2.8c-0.7-1.6-1.1-2.6-1.1-3c0-1.5,0.8-3,2.4-4.5c0.1-0.2,0.1-0.3,0.1-0.4c0-0.4-0.5-0.7-1.5-1
		C99.4,3.1,98.3,3,97,3c-1.1,0-2.1,0.4-3.1,1.3c-0.9,0.8-1.4,1.8-1.4,2.9c0,0.9,0.4,1.5,1.1,1.8c0.7,0.2,1.4,0.4,2,0.5
		c0.7,0.2,1.1,0.8,1.1,1.6c0,1.2-0.6,1.8-1.8,1.8c-1.2,0-2.2-0.4-3-1.3c-0.8-0.9-1.2-2-1.2-3.3c0-2.3,1-4.2,3.1-5.9
		c2-1.6,4.3-2.4,6.9-2.4c0.5,0,1.6,0.2,3.5,0.6c1.9,0.4,3.1,0.6,3.5,0.6c0.1,0,0.5-0.1,1.1-0.2c0.6-0.1,1-0.2,1.1-0.2
		c0,0.6-0.3,1.3-0.8,2.1c-0.5,0.8-1.2,1.5-2,2.1c-0.1,0-0.5,0-1.2,0c-0.2,0-0.5-0.1-1.1-0.2c-0.6-0.1-1-0.2-1.1-0.2
		c-0.2,0-0.3,0.1-0.4,0.3v2.1c1.1,2,1.8,3.2,2.1,3.7c0.2,0.6,0.4,1.2,0.4,2c0,0.8-0.2,1.5-0.5,2c-0.4,0.6-1.2,1.6-2.5,3
		c0.2,0.4,0.9,0.6,2.3,0.6c0.3,0,1.1-0.3,2.3-1c1.2-0.7,1.9-1,2.1-1c0,1-0.5,2.1-1.5,3.3c-1.2,1.5-1.9,2.5-2.1,3.1h-0.2
		c-1.3,0-2.2-0.1-2.9-0.2c-0.7-0.1-1.8-0.5-3.2-1c-0.6-0.3-1.1-0.6-1.7-0.9C96.6,20.3,95.7,20,95.1,20z"/>
	<path fill="#FFFFFF" d="M112.1,26.9c0-0.1,0-0.2,0-0.3c0-0.2,0-0.3,0-0.4c0-0.7,0.2-1.2,0.7-1.3c0.8,0,1.1,0,1,0
		c1.9,0,3.2-0.5,4-1.6c0.8-1.1,1.2-2.9,1.2-5.5c0-2.5-0.1-4.2-0.4-5.3c-0.3-1.1-0.8-1.8-1.6-2.3l-0.9,0.4v8.2c0,0.1,0.2,0.3,0.6,0.7
		c0.4,0.3,0.6,0.5,0.6,0.7c0,0.2-0.2,0.5-0.7,1.1c-0.5,0.6-1.2,1.3-2,1.9c-0.8-0.7-1.7-1.4-2.7-2.1c-0.6-0.4-0.8-0.7-0.8-0.8
		c0-0.4,0.3-0.9,0.9-1.5V6c0-0.6-0.4-1.6-1.2-2.9c0.1-0.2,0.3-0.3,0.6-0.3c0.1,0,0.5,0.2,1.1,0.5c0.7,0.3,1.1,0.5,1.2,0.5
		c0.2,0,0.3,0,0.3,0c0.6-0.9,1.1-1.4,1.6-1.8c0.4-0.3,1-0.5,1.6-0.5c0.6,0,0.9,0.3,0.9,0.8c0,0.1-0.2,0.4-0.5,0.8
		c-0.3,0.3-0.7,1.3-1.1,2.7c-0.4,1.4-0.5,2.3-0.5,2.8v0.1c1.3-0.6,2.3-1.4,3-2.3h0.2c0,0,0.1,0,0.1,0h0.1c1.1,0,2,1.2,2.8,3.5
		c0.6,1.9,0.9,3.6,0.9,5c0,2.9-0.8,5.6-2.4,8.1c-1.8,2.8-4.1,4.2-6.8,4.2C112.8,27.2,112.3,27.1,112.1,26.9z"/>
	<path fill="#FFFFFF" d="M125.3,20.1v-0.6c0.2-0.4,0.4-0.9,0.6-1.5v-7.3c-0.8-0.6-1.2-1.1-1.2-1.4c0-0.6,0.3-1.2,0.9-1.8
		c0.6-0.6,1.3-0.9,1.9-0.9c0.6,0,1.2,0.3,1.7,1c0.5,0.7,0.7,1.4,0.7,2.2v7.6c0,0.3,0.1,0.6,0.3,1c0.2,0.4,0.5,0.5,0.7,0.5
		c0.4,0,0.9-0.3,1.3-0.9c0.2-2.2,0.3-3.6,0.3-4.2c0-0.3-0.2-1.1-0.5-2.4c-0.3-1.3-0.5-2.1-0.5-2.4c0-0.2,0.3-0.5,0.8-1
		c0.8-0.7,1.4-1.2,1.8-1.6h0.3l1.1,1.1c0.1,0.1,0.5,0.5,1.2,1c0.4,0.3,0.6,0.6,0.6,0.8c-0.2,0.3-0.5,0.8-0.9,1.5v7.6
		c0,0.2,0.2,0.4,0.6,0.6c0.4,0.3,0.6,0.5,0.6,0.7c0,0.1,0,0.2-0.1,0.4l-2.6,2.6l-0.3,0c-0.6,0-1.1-0.2-1.5-0.7
		c-0.2-0.3-0.3-0.7-0.5-1c-0.4-0.6-0.7-1-0.9-1c-0.2,0-0.9,0.4-2,1.3c-0.4,0.4-0.9,0.8-1.3,1.1c-0.4,0.4-0.7,0.5-0.8,0.5
		C127.8,23,126.9,22,125.3,20.1z"/>
	<path fill="#FFFFFF" d="M153.5,20.1c0,0,0,0.1,0,0.1v0.1c-0.4,0.5-0.8,1.1-1.3,1.6c-0.5,0.5-1,0.8-1.4,0.8c-0.7,0-1.3-0.4-1.9-1.1
		c-0.6-0.7-0.9-1.4-0.9-2.2v-8.8c0-0.1-0.1-0.2-0.4-0.3c-0.3-0.2-0.4-0.3-0.5-0.3c-0.3,0-0.6,0.2-1,0.5c-0.4,0.3-0.6,0.8-0.7,1.3
		c0-0.1,0,0.4,0,1.5c0,1.7,0.1,3.6,0.3,5.5c0.4,0.4,0.6,0.8,0.6,1.2c0,0.1-0.5,0.6-1.4,1.5c-0.9,0.9-1.5,1.4-1.5,1.4
		c-0.2,0-0.8-0.4-1.6-1.3c-0.9-0.9-1.3-1.4-1.3-1.6v-0.3c0.3-0.4,0.6-0.8,0.7-1.3c0.2-0.7,0.3-2,0.3-3.8v-1.7c0-1.1,0-1.8-0.1-2
		L140,9.5c0-0.1,0-0.1,0-0.1c0-0.2,0.3-0.7,1-1.3c0.7-0.7,1.3-1.2,2-1.7h0.6c1.4,1,2,1.9,2,2.6C145.7,9,145.8,9,146,9
		c0.3,0,1.1-0.4,2.2-1.3s1.8-1.3,2-1.3c2,1.6,3.1,2.5,3.1,2.9c0,0.1-0.1,0.4-0.4,0.9c-0.3,0.5-0.4,0.8-0.4,0.8v7.6
		c0,0.1,0.2,0.2,0.6,0.5C153.3,19.5,153.5,19.8,153.5,20.1z"/>
	<path fill="#FFFFFF" d="M156.1,20.1c0-0.1,0-0.4,0.1-0.7c0.1-0.4,0.1-0.6,0.1-0.7v-8.5c0-0.1,0.3-0.5,1-1c0.7-0.5,1-0.9,1-1.1
		c0-0.2-0.4-0.7-1.3-1.7c-0.9-0.9-1.3-1.6-1.3-2c0-0.6,0.1-1,0.3-1.3c0.2-0.3,0.7-0.8,1.5-1.5h0.2c0.1,0,0.1,0,0.2,0
		c0.3,0,0.6,0.2,0.9,0.5c0.4,0.5,0.9,1,1.3,1.6c0.3,0.3,1.5,1.2,3.7,2.7c1.4,0.9,2.2,1.9,2.7,2.9c0.4,1,0.7,2.5,0.7,4.5
		c0,2.4-0.5,4.1-1.6,5.1l-4,3.8H161c-1-0.5-2-1-2.9-1.5L157,21c-0.6-0.1-0.9-0.3-0.9-0.6V20.1z M160.5,9.4v8.4
		c0,0.2,0.8,0.6,2.3,1.2h0.1c0,0,0.1,0,0.1,0c0.3-0.1,0.4-0.3,0.5-0.9v-1.8C163.4,11.7,162.4,9.4,160.5,9.4z"/>
	<path fill="#FFFFFF" d="M174.7,6.1h0.2c0.7,0,1.4,0.5,2.2,1.6c0.8,1.1,1.2,2,1.2,2.6c0,1-0.4,2-1.3,2.9c-0.8,0.7-1.6,1.4-2.5,2.1
		c-0.9,0.8-1.3,1.5-1.3,2.1c0,1,0.7,1.5,2,1.5c0.2,0,0.8-0.2,1.7-0.5c0.9-0.3,1.5-0.5,1.7-0.5v0.7c-1.7,2-2.5,3.1-2.6,3.1
		c-0.5,0.6-0.9,0.9-1.1,1c-0.1,0-0.5,0.1-1.3,0.1c-1.2,0-2.3-0.4-3.2-1.1c-0.9-0.7-1.4-1.7-1.4-2.7v-6.1c0-1.4,0.7-2.6,2.2-3.8
		L174.7,6.1z M173.1,9.8c-0.2,0-0.3,0.1-0.4,0.3v4.7c0,0.1,0.1,0.2,0.3,0.3h0.1c0.5,0,0.9-0.3,1.3-0.9c0.4-0.6,0.6-1.2,0.6-1.8
		c0-0.4-0.2-0.9-0.7-1.6C173.8,10.2,173.4,9.8,173.1,9.8z"/>
	<path fill="#FFFFFF" d="M181.4,20.1c0-0.3,0.1-1.3,0.3-2.8c0.2-1.5,0.3-2.4,0.3-2.8v-2.2c0-1.1-0.2-1.8-0.5-2
		c-0.2-0.1-0.4-0.1-0.7-0.2c-0.5-0.2-0.7-0.4-0.7-0.7c0-0.2,0-0.4,0.1-0.4l2.6-2.6h1.2l2.2,2.2l2.2-2.2c0.1,0,0.2,0,0.3,0
		c0.5,0,1,0.3,1.5,0.9c0.6,0.6,0.8,1.1,0.8,1.6c0,0.9-0.3,1.7-0.9,2.4c-0.6,0.8-1.3,1.2-2,1.2c-0.2-1.6-0.5-2.4-1-2.4
		c-0.5,0-0.7,0.7-0.7,2v2.1c0,2.5,0.1,3.9,0.3,4.1l0.6,0.6h2.4c0,0.3-0.5,1.1-1.4,2.2c-1,1.1-1.6,1.7-1.9,1.7
		c-0.3,0-1.2-0.4-2.7-1.1C182.1,20.9,181.4,20.3,181.4,20.1z"/>
</g>
</svg>
